<svg width="108" height="74" viewBox="0 0 108 74" fill="none" xmlns="http://www.w3.org/2000/svg">
<path d="M105.083 0.709106H59.8404C58.6298 0.709106 57.6484 1.6905 57.6484 2.9011V71.099C57.6484 72.3096 58.6298 73.291 59.8404 73.291H105.083C106.294 73.291 107.275 72.3096 107.275 71.099V2.9011C107.275 1.6905 106.294 0.709106 105.083 0.709106Z" fill="#F3F3E0" stroke="#5E7AA4" stroke-width="0.925648"/>
<path d="M64.457 69.8784C63.8827 69.8784 63.3945 69.6932 62.9925 69.3227C62.6479 68.8905 62.4756 68.3657 62.4756 67.7482V6.25196C62.4756 5.63453 62.6479 5.14059 62.9925 4.77013C63.3945 4.33793 63.8827 4.12183 64.457 4.12183H68.7643C69.3961 4.12183 69.8842 4.33793 70.2288 4.77013C70.5734 5.14059 70.7457 5.63453 70.7457 6.25196V27.8312C72.2963 25.732 74.1916 24.034 76.4314 22.7374C78.6712 21.4408 81.5141 20.7925 84.9599 20.7925C88.693 20.7925 91.8517 21.6878 94.4361 23.4783C97.078 25.2071 99.0593 27.646 100.38 30.7949C101.759 33.8821 102.448 37.494 102.448 41.6308V67.7482C102.448 68.3657 102.275 68.8905 101.931 69.3227C101.586 69.6932 101.098 69.8784 100.466 69.8784H96.1591C95.5847 69.8784 95.0966 69.6932 94.6946 69.3227C94.35 68.8905 94.1777 68.3657 94.1777 67.7482V42.0939C94.1777 37.7719 93.2014 34.4069 91.2487 31.9989C89.296 29.5292 86.4244 28.2943 82.634 28.2943C79.0732 28.2943 76.2017 29.5292 74.0193 31.9989C71.8369 34.4069 70.7457 37.7719 70.7457 42.0939V67.7482C70.7457 68.3657 70.5734 68.8905 70.2288 69.3227C69.8842 69.6932 69.3961 69.8784 68.7643 69.8784H64.457Z" fill="#608BC1"/>
<path d="M2.44039 69.9915C1.80889 69.9915 1.27212 69.802 0.830071 69.4231C0.451172 68.9811 0.261719 68.4443 0.261719 67.8128V22.9133C0.261719 22.2818 0.451172 21.7766 0.830071 21.3977C1.27212 20.9557 1.80889 20.7346 2.44039 20.7346H6.703C7.33449 20.7346 7.8397 20.9557 8.21859 21.3977C8.66064 21.7766 8.88166 22.2818 8.88166 22.9133V26.2287C10.3341 24.271 12.1655 22.7238 14.3757 21.5872C16.5859 20.3873 19.2382 19.7874 22.3326 19.7874C29.4685 19.7242 34.5205 22.6291 37.4885 28.5021C38.941 25.8498 41.0565 23.7342 43.8351 22.1555C46.6137 20.5768 49.7712 19.7874 53.3075 19.7874C56.5913 19.7874 59.5594 20.5452 62.2117 22.0608C64.9271 23.5764 67.0426 25.8813 68.5582 28.9757C70.137 32.0069 70.9263 35.8274 70.9263 40.4374V67.8128C70.9263 68.4443 70.7053 68.9811 70.2633 69.4231C69.8844 69.802 69.3792 69.9915 68.7477 69.9915H64.2956C63.6641 69.9915 63.1273 69.802 62.6853 69.4231C62.3064 68.9811 62.1169 68.4443 62.1169 67.8128V41.2899C62.1169 37.7535 61.6117 34.9749 60.6013 32.9541C59.5909 30.9333 58.2332 29.5125 56.5282 28.6915C54.8231 27.8706 52.9602 27.4601 50.9394 27.4601C49.2975 27.4601 47.6241 27.8706 45.919 28.6915C44.214 29.5125 42.7931 30.9333 41.6564 32.9541C40.5829 34.9749 40.0461 37.7535 40.0461 41.2899V67.8128C40.0461 68.4443 39.8251 68.9811 39.383 69.4231C39.0041 69.802 38.4989 69.9915 37.8674 69.9915H33.4154C32.7839 69.9915 32.2471 69.802 31.805 69.4231C31.4261 68.9811 31.2367 68.4443 31.2367 67.8128V41.2899C31.2367 37.7535 30.6999 34.9749 29.6264 32.9541C28.5528 30.9333 27.1635 29.5125 25.4585 28.6915C23.7534 27.8706 21.9537 27.4601 20.0592 27.4601C18.4173 27.4601 16.7438 27.8706 15.0388 28.6915C13.3337 29.5125 11.9129 30.9333 10.7762 32.9541C9.70262 34.9749 9.16584 37.7219 9.16584 41.1952V67.8128C9.16584 68.4443 8.94482 68.9811 8.50277 69.4231C8.12387 69.802 7.61867 69.9915 6.98717 69.9915H2.44039Z" fill="#133E87"/>
</svg>
